<!-- Generated by IcoMoon.io -->
<svg version="1.1" xmlns="http://www.w3.org/2000/svg" width="32" height="32" viewBox="0 0 32 32">
<title>check-square</title>
<path d="M11.057 15.609l4 4c0.521 0.521 1.365 0.521 1.885 0l13.333-13.333c0.521-0.521 0.521-1.365 0-1.885s-1.365-0.521-1.885 0l-12.391 12.391-3.057-3.057c-0.521-0.521-1.365-0.521-1.885 0s-0.521 1.365 0 1.885zM26.667 16v9.333c0 0.368-0.148 0.7-0.391 0.943s-0.575 0.391-0.943 0.391h-18.667c-0.368 0-0.7-0.148-0.943-0.391s-0.391-0.575-0.391-0.943v-18.667c0-0.368 0.148-0.7 0.391-0.943s0.575-0.391 0.943-0.391h14.667c0.736 0 1.333-0.597 1.333-1.333s-0.597-1.333-1.333-1.333h-14.667c-1.104 0-2.107 0.449-2.828 1.172s-1.172 1.724-1.172 2.828v18.667c0 1.104 0.449 2.107 1.172 2.828s1.724 1.172 2.828 1.172h18.667c1.104 0 2.107-0.449 2.828-1.172s1.172-1.724 1.172-2.828v-9.333c0-0.736-0.597-1.333-1.333-1.333s-1.333 0.597-1.333 1.333z"></path>
</svg>
