<svg xmlns="http://www.w3.org/2000/svg" aria-hidden="true" style="position:absolute;width:0;height:0;overflow:hidden"><defs><symbol id="icon-frame" viewBox="0 0 32 32"><path fill="#fff" d="m32 2.667-32 15 10.227 3.156L26 8.5 14.002 21.988l.01.003-.012-.003v7.345l5.735-5.576L27 25.999l5-23.333z" style="fill:var(--color1, #fff)"/></symbol><symbol id="icon-check" viewBox="0 0 32 32"><path d="M12 21.56 6.44 16l-1.893 1.88L12 25.333l16-16-1.88-1.88z"/></symbol><symbol id="icon-frame1" viewBox="0 0 32 32"><path fill="#fff" d="m32 2.667-32 15 10.227 3.156L26 8.5 14.002 21.988l.01.003-.012-.003v7.345l5.735-5.576L27 25.999l5-23.333z" style="fill:var(--color1, #fff)"/></symbol><symbol id="icon-check-square" viewBox="0 0 32 32"><path d="m11.057 15.609 4 4a1.332 1.332 0 0 0 1.885 0L30.275 6.276a1.332 1.332 0 1 0-1.885-1.885L15.999 16.782l-3.057-3.057a1.332 1.332 0 1 0-1.885 1.885zm15.61.391v9.333c0 .368-.148.7-.391.943s-.575.391-.943.391H6.666c-.368 0-.7-.148-.943-.391s-.391-.575-.391-.943V6.666c0-.368.148-.7.391-.943s.575-.391.943-.391h14.667a1.333 1.333 0 0 0 0-2.666H6.666a3.998 3.998 0 0 0-4 4v18.667a3.998 3.998 0 0 0 4 4h18.667a3.998 3.998 0 0 0 4-4V16a1.333 1.333 0 0 0-2.666 0z"/></symbol><symbol id="icon-send" viewBox="0 0 32 32"><path d="M30.617 3.025a1.342 1.342 0 0 0-.472-1.417 1.342 1.342 0 0 0-1.251-.199l-.028.009-26.64 9.324a1.331 1.331 0 0 0-.102 2.477l11.532 5.125 5.125 11.532a1.333 1.333 0 0 0 2.476-.102l9.324-26.639c.013-.036.025-.072.036-.109zM14.372 15.743l-8.091-3.595 17.977-6.293zm11.773-8.002-6.293 17.977-3.595-8.091z"/></symbol><symbol id="icon-frame2" viewBox="0 0 32 32"><path fill="#fff" d="m32 2.667-32 15 10.227 3.156L26 8.5 14.002 21.988l.01.003-.012-.003v7.345l5.735-5.576L27 25.999l5-23.333z" style="fill:var(--color1, #fff)"/></symbol></defs></svg>