<?xml version="1.0" encoding="utf-8"?>
<!-- Generator: Adobe Illustrator 26.0.1, SVG Export Plug-In . SVG Version: 6.00 Build 0)  -->
<svg version="1.1" id="Warstwa_1" xmlns="http://www.w3.org/2000/svg" xmlns:xlink="http://www.w3.org/1999/xlink" x="0px" y="0px"
	 viewBox="0 0 286.1 65.2" style="enable-background:new 0 0 286.1 65.2;" xml:space="preserve">
<style type="text/css">
	.st0{fill:#878787;}
	.st1{fill:#5A9E33;}
	.st2{fill:url(#SVGID_1_);}
	.st3{fill:url(#SVGID_00000043415925271626980870000017815098016245094296_);}
</style>
<g>
	<path class="st0" d="M0,41c0-8.9,5.3-14.1,15.5-14.1c8.1,0,13,3.3,15,10c0.2,0.6,0,1-0.5,1.2l-1.2,0.4c-0.6,0.2-0.9,0-1.2-0.6
		c-1.7-5.7-5.2-8.2-12.2-8.2c-8.1,0-12.3,4.1-12.3,11.1v11.3c0,7,4.4,11.2,12.3,11.2c6.9,0,10.7-2.8,12.3-8.6
		c0.2-0.6,0.6-0.8,1.2-0.6l1.3,0.4c0.6,0.2,0.7,0.7,0.5,1.2c-2.1,7-7.3,10.5-15.3,10.5C5.4,66.2,0,61,0,52.1V41z"/>
	<path class="st0" d="M33.7,39.7c0-7.8,6-12.8,15.5-12.8c9.6,0,15.6,4.9,15.6,12.8v13.8c0,7.8-6,12.7-15.6,12.7
		c-9.5,0-15.5-4.9-15.5-12.7V39.7z M61.7,39.6c0-6.1-4.9-9.9-12.5-9.9c-7.5,0-12.4,3.8-12.4,9.9v13.9c0,6,4.9,9.9,12.4,9.9
		c7.6,0,12.5-3.8,12.5-9.9V39.6z"/>
	<path class="st0" d="M106.5,26.9c8.5,0,12.8,4.5,12.8,13.5v23.9c0,0.6-0.3,0.9-0.9,0.9h-1.4c-0.6,0-0.9-0.3-0.9-0.9V40.6
		c0-7.3-3.1-10.7-10-10.7c-3.9,0-7.7,1-11.3,3c1.2,2,1.7,4.5,1.7,7.6v23.9c0,0.6-0.3,0.9-0.9,0.9h-1.4c-0.6,0-0.9-0.3-0.9-0.9V40.6
		c0-7.2-3.4-10.7-10.3-10.7c-3.2,0-6,0.6-8.5,1.7c-1,0.5-1.5,1.3-1.5,2.5v30.2c0,0.6-0.3,0.9-0.8,0.9H71c-0.6,0-0.9-0.3-0.9-0.9v-31
		c0-2.3,0.7-3.1,2.8-4.1c3.3-1.5,6.9-2.3,10.7-2.3c4.3,0,7.5,1.2,9.7,3.5C97.3,28.1,101.8,26.9,106.5,26.9z"/>
	<path class="st1" d="M156.4,11.4c1.4,0,1.7,0.4,1.7,1.7v2.5c0,1.4-0.4,1.8-1.7,1.8h-12.1c-6.9,0-9.4,2.4-9.4,8.9v1.4h21.4
		c1.4,0,1.7,0.4,1.7,1.7v34c0,1.4-0.4,1.7-1.7,1.7h-3.1c-1.4,0-1.7-0.4-1.7-1.7V33.7H135v29.7c0,1.4-0.4,1.7-1.8,1.7h-2.9
		c-1.4,0-1.8-0.4-1.8-1.7V33.7H123c-1.2,0-1.7-0.5-1.7-1.7v-2.5c0-1.2,0.4-1.7,1.7-1.7h5.5v-1.4c0-10.4,4.9-14.9,15.9-14.9H156.4z"
		/>
	<path class="st1" d="M180.1,26.6c9.8,0,14.7,4.8,14.7,14.4v22.4c0,1.4-0.5,1.7-1.7,1.7h-3.1c-1.2,0-1.7-0.4-1.7-1.7V41.2
		c0-5.7-3.1-8.6-9.1-8.6c-2.9,0-5.7,0.4-8.4,1.3c-0.6,0.2-0.9,0.7-0.9,1.3v28.3c0,1.4-0.4,1.7-1.7,1.7h-3.1c-1.2,0-1.7-0.5-1.7-1.7
		V33.1c0-2.3,0.5-3.1,2.8-4.1C170.2,27.4,174.9,26.6,180.1,26.6z"/>
	<path class="st1" d="M198.8,40.6c0-8.7,6.1-13.9,16.3-13.9c10.4,0,16.3,5.2,16.3,13.9v11.8c0,8.6-6,13.9-16.3,13.9
		c-10.2,0-16.3-5.2-16.3-13.9V40.6z M224.9,40.5c0-5-3.7-8-9.9-8c-6.1,0-9.8,3-9.8,8v11.9c0,5,3.7,8,9.8,8c6.2,0,9.9-3,9.9-8V40.5z"
		/>
	
		<linearGradient id="SVGID_1_" gradientUnits="userSpaceOnUse" x1="280.6139" y1="61.1983" x2="261.7397" y2="32.5558" gradientTransform="matrix(1 0 0 1 -0.8883 -8.885)">
		<stop  offset="0" style="stop-color:#DEDC00"/>
		<stop  offset="0.2151" style="stop-color:#95C11F"/>
		<stop  offset="1" style="stop-color:#00663A"/>
	</linearGradient>
	<path class="st2" d="M282.3,36.4c1,0,1.4,0.7,1,1.6l-4.3,8.6c-0.3,0.6-1.1,1.1-1.8,1.1H272c-3.4,0-6.5-0.9-9.2-2.5
		c-3.6-2.4-6-6-6-10.1c0-7.1,6.6-12.9,15.2-12.9c-3.9,0-7.1,3.2-7.1,7.1c0,3.9,3.2,7.1,7.1,7.1H282.3z"/>
	
		<linearGradient id="SVGID_00000078753130182402882050000017368803777486310534_" gradientUnits="userSpaceOnUse" x1="258.9439" y1="42.6709" x2="296.1089" y2="3.6968" gradientTransform="matrix(1 0 0 1 -0.8883 -8.885)">
		<stop  offset="0" style="stop-color:#DEDC00"/>
		<stop  offset="0.2151" style="stop-color:#95C11F"/>
		<stop  offset="0.4162" style="stop-color:#5A9E33"/>
		<stop  offset="1" style="stop-color:#5A9E33"/>
	</linearGradient>
	<path style="fill:url(#SVGID_00000078753130182402882050000017368803777486310534_);" d="M253.6,29.3c0-10.2,8.3-18.4,18.4-18.4
		h10.3c1,0,1.4,0.7,1,1.6l-4.3,8.6c-0.3,0.6-1.1,1.1-1.8,1.1H272c-8.6,0-15.2,5.8-15.2,12.9c0,4.1,2.3,7.8,6,10.1
		C257.3,42.1,253.6,36.2,253.6,29.3z"/>
	<rect x="244" y="2.6" class="st0" width="1" height="52.2"/>
</g>
</svg>
