<svg xmlns="http://www.w3.org/2000/svg" xmlns:xlink="http://www.w3.org/1999/xlink" width="160" height="75" viewBox="0 0 160 75">
  <defs>
    <linearGradient id="linear-gradient" x1="0.5" x2="0.5" y2="1" gradientUnits="objectBoundingBox">
      <stop offset="0" stop-color="#30d366"/>
      <stop offset="1" stop-color="#8dffb0"/>
    </linearGradient>
    <clipPath id="clip-tpay-160x75">
      <rect width="160" height="75"/>
    </clipPath>
  </defs>
  <g id="tpay-160x75" clip-path="url(#clip-tpay-160x75)">
    <path id="Rectangle_251" data-name="Rectangle 251" d="M10,0H50a0,0,0,0,1,0,0V160a0,0,0,0,1,0,0H10A10,10,0,0,1,0,150V10A10,10,0,0,1,10,0Z" transform="translate(0 75) rotate(-90)" fill="#fff"/>
    <path id="Rectangle_252" data-name="Rectangle 252" d="M10,0H53a0,0,0,0,1,0,0V160a0,0,0,0,1,0,0H10A10,10,0,0,1,0,150V10A10,10,0,0,1,10,0Z" transform="translate(160 4) rotate(90)" fill="url(#linear-gradient)"/>
    <path id="Rectangle_250" data-name="Rectangle 250" d="M10,0H53a0,0,0,0,1,0,0V160a0,0,0,0,1,0,0H10A10,10,0,0,1,0,150V10A10,10,0,0,1,10,0Z" transform="translate(160) rotate(90)" fill="#072653"/>
    <g id="Group_1" data-name="Group 1" transform="translate(-19.01 -6.04)">
      <path id="Path_3" data-name="Path 3" d="M69.06,29.268a7.052,7.052,0,0,1,2.173-1.895,5.778,5.778,0,0,1,2.849-.7,5.146,5.146,0,0,1,2.424.536,4.7,4.7,0,0,1,1.672,1.463,6.348,6.348,0,0,1,.968,2.18,11.265,11.265,0,0,1,.307,2.654,12.678,12.678,0,0,1-.571,3.859,10.554,10.554,0,0,1-1.6,3.19,7.834,7.834,0,0,1-2.438,2.166,6.238,6.238,0,0,1-3.114.794,6.07,6.07,0,0,1-2.877-.641,5.337,5.337,0,0,1-2.055-2.1l-1.672,8.178H61.78l4.43-21.8h3.26Zm-1.435,7.753a3.886,3.886,0,0,0,.878,2.654,3.332,3.332,0,0,0,2.64,1.01,3.6,3.6,0,0,0,2.041-.592,5.062,5.062,0,0,0,1.512-1.6,8.169,8.169,0,0,0,.94-2.306,11.089,11.089,0,0,0,.32-2.7,4.54,4.54,0,0,0-.822-2.933,2.647,2.647,0,0,0-2.146-1.01,4.306,4.306,0,0,0-1.714.348,5.2,5.2,0,0,0-1.47.975,5.81,5.81,0,0,0-1.115,1.463,6.586,6.586,0,0,0-.662,1.818,19.365,19.365,0,0,0-.4,2.877" transform="translate(-5.804 -1.644)" fill="#fff"/>
      <path id="Path_4" data-name="Path 4" d="M92.976,43.431a4.54,4.54,0,0,1-3.225-1.115A4.18,4.18,0,0,1,88.546,39.1a4.786,4.786,0,0,1,2.584-4.549,8.887,8.887,0,0,1,2.7-.913A23.121,23.121,0,0,1,97,33.3l2.786-.125.091-.488a6.974,6.974,0,0,0,.091-1.038,2.315,2.315,0,0,0-.613-1.707,2.821,2.821,0,0,0-2.027-.613,5.1,5.1,0,0,0-2.4.446A2.891,2.891,0,0,0,93.666,31.5l-3.023-.334a5.685,5.685,0,0,1,2.466-3.462,8.944,8.944,0,0,1,4.577-1.024,5.932,5.932,0,0,1,4.082,1.268,4.591,4.591,0,0,1,1.435,3.56,7.836,7.836,0,0,1-.056.885c-.042.307-.091.62-.146.947l-1.992,9.7h-3.17l.411-2.076a10.274,10.274,0,0,1-2.229,1.783,6.192,6.192,0,0,1-3.044.676M99.288,35.5l-2.257.125a15.845,15.845,0,0,0-2.466.32,4.776,4.776,0,0,0-1.588.627,2.284,2.284,0,0,0-.836.961,3.162,3.162,0,0,0-.251,1.3,1.9,1.9,0,0,0,.529,1.358,2.12,2.12,0,0,0,1.616.564,5.155,5.155,0,0,0,1.735-.293,5.413,5.413,0,0,0,1.484-.794,4.78,4.78,0,0,0,1.115-1.219,4.623,4.623,0,0,0,.634-1.6Z" transform="translate(-13.922 -1.645)" fill="#fff"/>
      <path id="Path_5" data-name="Path 5" d="M111.183,27.38h3.7l1.937,11.445,6.1-11.445h3.817l-9.829,16.851c-.467.815-.906,1.533-1.3,2.153a8.066,8.066,0,0,1-1.261,1.54,4.849,4.849,0,0,1-1.456.933,4.968,4.968,0,0,1-1.881.32,6.114,6.114,0,0,1-1.337-.139,6.966,6.966,0,0,1-1.191-.383l.878-2.626a6.522,6.522,0,0,0,.731.23,3.525,3.525,0,0,0,.878.1,2.013,2.013,0,0,0,1.421-.5,7.3,7.3,0,0,0,1.219-1.693l.878-1.553Z" transform="translate(-19.972 -1.86)" fill="#fff"/>
      <path id="Path_6" data-name="Path 6" d="M51.65,36.325c-.042.2-.077.383-.1.536a2.663,2.663,0,0,0-.042.474,1.463,1.463,0,0,0,.425,1.219,1.826,1.826,0,0,0,1.156.334,6.112,6.112,0,0,0,.982-.077,6.426,6.426,0,0,0,.836-.2l.5,2.591a9.3,9.3,0,0,1-3.079.488,4.585,4.585,0,0,1-3.114-.947,3.608,3.608,0,0,1-1.087-2.87,7.143,7.143,0,0,1,.2-1.679l1.616-7.934H42.65l.557-2.745H50.5l.878-4.27h3.344l-.878,4.27h4.089l-.557,2.745H53.287Z" fill="#fff"/>
      <path id="Path_7" data-name="Path 7" d="M145.99,33.329l3.016-3.978h-2.954V28.62h4.033V29.3L147.07,33.28h3.17l-.111.731H145.99Z" transform="translate(-31.352 -2.236)" fill="#30d366"/>
      <path id="Path_8" data-name="Path 8" d="M156.559,33.2a2.52,2.52,0,0,1-.711.606,2.108,2.108,0,0,1-1.073.258,2.589,2.589,0,0,1-.717-.1,1.568,1.568,0,0,1-.564-.3,1.282,1.282,0,0,1-.362-.509,1.847,1.847,0,0,1-.132-.711,1.65,1.65,0,0,1,.223-.9,1.558,1.558,0,0,1,.6-.543,2.856,2.856,0,0,1,.843-.279,7.352,7.352,0,0,1,.968-.1l.892-.028v-.209a1.423,1.423,0,0,0-.279-.989,1.19,1.19,0,0,0-.913-.3,1.533,1.533,0,0,0-.913.216,1,1,0,0,0-.383.592l-.794-.091a1.563,1.563,0,0,1,.669-1.08,2.692,2.692,0,0,1,1.442-.341,2.862,2.862,0,0,1,.947.139,1.482,1.482,0,0,1,.975,1.052,3.3,3.3,0,0,1,.1.864v3.5h-.843V33.2Zm-.021-1.957-.829.028a4.742,4.742,0,0,0-.885.1,1.748,1.748,0,0,0-.557.223.74.74,0,0,0-.293.348,1.286,1.286,0,0,0-.084.481.874.874,0,0,0,.237.648,1.049,1.049,0,0,0,.773.244,1.722,1.722,0,0,0,1.205-.4,1.411,1.411,0,0,0,.432-1.087v-.592Z" transform="translate(-33.478 -2.165)" fill="#30d366"/>
      <path id="Path_9" data-name="Path 9" d="M161.117,28.62h.871v3.4a1.8,1.8,0,0,0,.237,1.066.9.9,0,0,0,.766.313,1.5,1.5,0,0,0,1.052-.439,1.763,1.763,0,0,0,.383-.488,1.488,1.488,0,0,0,.132-.662V28.62h.871V34h-.864v-.836a2.527,2.527,0,0,1-.822.759,1.958,1.958,0,0,1-.954.237,1.546,1.546,0,0,1-1.275-.495,2.329,2.329,0,0,1-.4-1.484Z" transform="translate(-35.94 -2.236)" fill="#30d366"/>
      <path id="Path_10" data-name="Path 10" d="M169.338,28.419h-.808V27.7h.808v-.467a2.026,2.026,0,0,1,.125-.752,1.363,1.363,0,0,1,.341-.515,1.415,1.415,0,0,1,.5-.3,1.9,1.9,0,0,1,.606-.1,2.967,2.967,0,0,1,.439.028,2.179,2.179,0,0,1,.439.1l-.139.711a1.75,1.75,0,0,0-.306-.07c-.1-.007-.2-.014-.286-.014a.924.924,0,0,0-.6.2.845.845,0,0,0-.251.7v.488h1.31v.718h-1.31v4.667h-.871Z" transform="translate(-38.191 -1.311)" fill="#30d366"/>
      <path id="Path_11" data-name="Path 11" d="M177.1,33.2a2.521,2.521,0,0,1-.711.606,2.108,2.108,0,0,1-1.073.258,2.589,2.589,0,0,1-.718-.1,1.568,1.568,0,0,1-.564-.3,1.282,1.282,0,0,1-.362-.509,1.847,1.847,0,0,1-.132-.711,1.65,1.65,0,0,1,.223-.9,1.558,1.558,0,0,1,.6-.543,2.856,2.856,0,0,1,.843-.279,7.353,7.353,0,0,1,.968-.1l.892-.028v-.209a1.423,1.423,0,0,0-.279-.989,1.19,1.19,0,0,0-.913-.3,1.532,1.532,0,0,0-.913.216,1,1,0,0,0-.383.592l-.794-.091a1.563,1.563,0,0,1,.669-1.08,2.692,2.692,0,0,1,1.442-.341,2.863,2.863,0,0,1,.947.139,1.482,1.482,0,0,1,.975,1.052,3.3,3.3,0,0,1,.1.864v3.5h-.843V33.2Zm-.021-1.957-.829.028a4.742,4.742,0,0,0-.885.1,1.749,1.749,0,0,0-.557.223.741.741,0,0,0-.293.348,1.287,1.287,0,0,0-.084.481.874.874,0,0,0,.237.648,1.049,1.049,0,0,0,.773.244,1.722,1.722,0,0,0,1.205-.4,1.411,1.411,0,0,0,.432-1.087v-.592Z" transform="translate(-39.71 -2.165)" fill="#30d366"/>
      <path id="Path_12" data-name="Path 12" d="M181.72,28.545h.864v.822a2.316,2.316,0,0,1,.843-.759,2.152,2.152,0,0,1,.968-.23,1.632,1.632,0,0,1,1.31.5,2.2,2.2,0,0,1,.425,1.47V33.93h-.871V30.523A1.661,1.661,0,0,0,185,29.465a1,1,0,0,0-.8-.307,1.691,1.691,0,0,0-.578.1,1.429,1.429,0,0,0-.516.334,1.764,1.764,0,0,0-.383.488,1.488,1.488,0,0,0-.132.662v3.19h-.871Z" transform="translate(-42.192 -2.161)" fill="#30d366"/>
      <path id="Path_13" data-name="Path 13" d="M194.241,32.427a1.9,1.9,0,0,1-.669,1.226,2.332,2.332,0,0,1-1.539.446,2.245,2.245,0,0,1-1.811-.745,3.135,3.135,0,0,1-.634-2.076,3.971,3.971,0,0,1,.181-1.24,2.438,2.438,0,0,1,.509-.906,2.116,2.116,0,0,1,.773-.557,2.521,2.521,0,0,1,.982-.2,2.432,2.432,0,0,1,1.031.2,1.84,1.84,0,0,1,.7.55,2.369,2.369,0,0,1,.411.829,3.848,3.848,0,0,1,.132,1.052v.46h-3.845a2.584,2.584,0,0,0,.1.752,1.9,1.9,0,0,0,.3.606,1.445,1.445,0,0,0,.488.4,1.476,1.476,0,0,0,.669.146,1.447,1.447,0,0,0,.954-.258,1.306,1.306,0,0,0,.411-.69Zm-.794-1.637a2.691,2.691,0,0,0-.084-.7,1.529,1.529,0,0,0-.251-.536,1.149,1.149,0,0,0-.439-.348,1.533,1.533,0,0,0-.648-.125,1.367,1.367,0,0,0-1.08.439,2.12,2.12,0,0,0-.453,1.268h2.954Z" transform="translate(-44.578 -2.163)" fill="#30d366"/>
      <path id="Path_14" data-name="Path 14" d="M146.7,42.18h.864v.773a2.273,2.273,0,0,1,.745-.7,1.989,1.989,0,0,1,1-.237,2.131,2.131,0,0,1,.968.209,1.869,1.869,0,0,1,.69.585,2.693,2.693,0,0,1,.411.892,4.473,4.473,0,0,1,.132,1.142,4.313,4.313,0,0,1-.16,1.205,2.617,2.617,0,0,1-.46.913,2.066,2.066,0,0,1-.724.578,2.252,2.252,0,0,1-.954.2,2.208,2.208,0,0,1-.864-.181,1.9,1.9,0,0,1-.766-.648v2.689h-.871V42.18Zm.864,2.842a3.005,3.005,0,0,0,.118.892,1.812,1.812,0,0,0,.313.613,1.128,1.128,0,0,0,.481.348,1.741,1.741,0,0,0,.613.111,1.553,1.553,0,0,0,.6-.111,1.2,1.2,0,0,0,.474-.369,1.888,1.888,0,0,0,.313-.662,3.662,3.662,0,0,0,.118-.989,3.4,3.4,0,0,0-.125-1,1.9,1.9,0,0,0-.327-.641,1.166,1.166,0,0,0-.453-.341,1.371,1.371,0,0,0-.522-.1,1.711,1.711,0,0,0-.634.118,1.348,1.348,0,0,0-.509.355,1.533,1.533,0,0,0-.334.592,2.508,2.508,0,0,0-.118.829v.355Z" transform="translate(-31.568 -6.301)" fill="#30d366"/>
      <path id="Path_15" data-name="Path 15" d="M155.553,43.368l-.913.662v-.787l.913-.669V39.3h.871v2.71l.913-.676v.8l-.913.669V46.74h-.871Z" transform="translate(-33.977 -5.476)" fill="#30d366"/>
      <path id="Path_16" data-name="Path 16" d="M162.739,46.825a2.52,2.52,0,0,1-.711.606,2.108,2.108,0,0,1-1.073.258,2.59,2.59,0,0,1-.718-.1,1.568,1.568,0,0,1-.564-.3,1.283,1.283,0,0,1-.362-.509,1.847,1.847,0,0,1-.132-.711,1.65,1.65,0,0,1,.223-.9,1.608,1.608,0,0,1,.6-.543,2.856,2.856,0,0,1,.843-.279,7.351,7.351,0,0,1,.968-.1l.892-.028v-.209a1.423,1.423,0,0,0-.279-.989,1.19,1.19,0,0,0-.913-.3,1.532,1.532,0,0,0-.913.216,1,1,0,0,0-.383.592l-.794-.091a1.563,1.563,0,0,1,.669-1.08,2.692,2.692,0,0,1,1.442-.341,2.862,2.862,0,0,1,.947.139,1.482,1.482,0,0,1,.975,1.052,3.3,3.3,0,0,1,.1.864v3.5h-.843v-.745Zm-.021-1.957-.829.028A4.742,4.742,0,0,0,161,45a1.749,1.749,0,0,0-.557.223.74.74,0,0,0-.293.348,1.285,1.285,0,0,0-.084.481.873.873,0,0,0,.237.648,1.049,1.049,0,0,0,.773.244,1.722,1.722,0,0,0,1.205-.4,1.411,1.411,0,0,0,.432-1.087v-.592Z" transform="translate(-35.353 -6.3)" fill="#30d366"/>
      <path id="Path_17" data-name="Path 17" d="M167.391,42.327h-.8V41.61h.8V40.14h.871v1.47h1.372v.718h-1.372v3.156a1.084,1.084,0,0,0,.167.634.59.59,0,0,0,.522.237,2.052,2.052,0,0,0,.383-.028,1.966,1.966,0,0,0,.307-.084l.153.7a2.512,2.512,0,0,1-.439.118,3.189,3.189,0,0,1-.557.049,1.7,1.7,0,0,1-.711-.132,1.045,1.045,0,0,1-.432-.383A1.537,1.537,0,0,1,167.44,46a5.017,5.017,0,0,1-.056-.752V42.327Z" transform="translate(-37.602 -5.731)" fill="#30d366"/>
      <path id="Path_18" data-name="Path 18" d="M172.34,42.175h.864V43a2.316,2.316,0,0,1,.843-.759,2.152,2.152,0,0,1,.968-.23,1.632,1.632,0,0,1,1.31.5,2.2,2.2,0,0,1,.425,1.47V47.56h-.871V44.153a1.661,1.661,0,0,0-.258-1.059,1,1,0,0,0-.8-.307,1.692,1.692,0,0,0-.578.1,1.429,1.429,0,0,0-.515.334,1.763,1.763,0,0,0-.383.488,1.488,1.488,0,0,0-.132.662v3.19h-.871Z" transform="translate(-39.347 -6.296)" fill="#30d366"/>
      <path id="Path_19" data-name="Path 19" d="M182.717,47.729a2.75,2.75,0,0,1-1.052-.2,2.182,2.182,0,0,1-.78-.564,2.427,2.427,0,0,1-.488-.9,3.956,3.956,0,0,1-.167-1.184,3.751,3.751,0,0,1,.181-1.191,2.663,2.663,0,0,1,.508-.906,2.247,2.247,0,0,1,.794-.578,2.627,2.627,0,0,1,1.038-.2,2.765,2.765,0,0,1,1.045.2,2.143,2.143,0,0,1,.787.571,2.464,2.464,0,0,1,.495.892,3.844,3.844,0,0,1,.167,1.177,3.769,3.769,0,0,1-.174,1.2,2.65,2.65,0,0,1-.5.906,2.129,2.129,0,0,1-.794.578,2.732,2.732,0,0,1-1.059.2m.014-.752a1.659,1.659,0,0,0,.724-.153,1.36,1.36,0,0,0,.495-.439,1.942,1.942,0,0,0,.286-.669,3.676,3.676,0,0,0,.091-.857,3.552,3.552,0,0,0-.091-.843,1.85,1.85,0,0,0-.286-.662,1.407,1.407,0,0,0-.495-.432,1.546,1.546,0,0,0-.724-.153,1.5,1.5,0,0,0-.718.153,1.386,1.386,0,0,0-.488.432,1.85,1.85,0,0,0-.286.662,4.1,4.1,0,0,0,0,1.714,2.079,2.079,0,0,0,.279.669,1.34,1.34,0,0,0,.488.439,1.741,1.741,0,0,0,.724.139" transform="translate(-41.74 -6.298)" fill="#30d366"/>
      <path id="Path_20" data-name="Path 20" d="M189.454,45.081a1.069,1.069,0,0,0,.453.787,1.936,1.936,0,0,0,1,.223,1.419,1.419,0,0,0,.933-.237.779.779,0,0,0,.279-.62,1.412,1.412,0,0,0-.035-.3.582.582,0,0,0-.132-.251.791.791,0,0,0-.279-.2,1.966,1.966,0,0,0-.474-.132l-.662-.1a4.841,4.841,0,0,1-.773-.188,1.888,1.888,0,0,1-.564-.3,1.145,1.145,0,0,1-.348-.446,1.6,1.6,0,0,1-.118-.641,1.377,1.377,0,0,1,.585-1.163,2.242,2.242,0,0,1,.648-.313,3.032,3.032,0,0,1,.815-.111,3.491,3.491,0,0,1,.933.111,1.751,1.751,0,0,1,.613.313,1.324,1.324,0,0,1,.369.467,3.081,3.081,0,0,1,.2.571l-.794.132a2.186,2.186,0,0,0-.16-.383.851.851,0,0,0-.244-.279,1.244,1.244,0,0,0-.362-.167,2.306,2.306,0,0,0-.536-.056,2.079,2.079,0,0,0-.6.07,1.032,1.032,0,0,0-.383.181.584.584,0,0,0-.2.258.722.722,0,0,0-.063.3,1,1,0,0,0,.042.3.5.5,0,0,0,.153.23.944.944,0,0,0,.3.174,2.722,2.722,0,0,0,.488.125l.752.125a2.468,2.468,0,0,1,1.31.543,1.5,1.5,0,0,1,.4,1.122,1.476,1.476,0,0,1-.132.634,1.4,1.4,0,0,1-.39.5,2.027,2.027,0,0,1-.648.334,3.223,3.223,0,0,1-.913.118,4.352,4.352,0,0,1-.878-.091,2.14,2.14,0,0,1-.717-.3,1.485,1.485,0,0,1-.5-.536,1.9,1.9,0,0,1-.223-.815h.864Zm1.839-6.061h1.073L191.014,40.5h-.864Z" transform="translate(-44.277 -5.391)" fill="#30d366"/>
      <path id="Path_21" data-name="Path 21" d="M200.853,45.729a2.386,2.386,0,0,1-.683,1.456,2.143,2.143,0,0,1-1.553.529,2.688,2.688,0,0,1-1.045-.2,1.941,1.941,0,0,1-.759-.571,2.491,2.491,0,0,1-.46-.9,4.137,4.137,0,0,1-.153-1.184,3.909,3.909,0,0,1,.167-1.177,2.627,2.627,0,0,1,.488-.906,2.236,2.236,0,0,1,.78-.585,2.5,2.5,0,0,1,1.045-.209,2.055,2.055,0,0,1,1.442.474,2.194,2.194,0,0,1,.648,1.31l-.871.167a3.015,3.015,0,0,0-.132-.481,1.143,1.143,0,0,0-.237-.383,1.123,1.123,0,0,0-.362-.251,1.421,1.421,0,0,0-.515-.091,1.478,1.478,0,0,0-.7.16,1.265,1.265,0,0,0-.474.446,1.985,1.985,0,0,0-.272.669,4.084,4.084,0,0,0,0,1.644,2.167,2.167,0,0,0,.258.676,1.341,1.341,0,0,0,.474.453,1.411,1.411,0,0,0,.711.167,1.2,1.2,0,0,0,.933-.334,1.726,1.726,0,0,0,.4-.906h.878Z" transform="translate(-46.585 -6.291)" fill="#30d366"/>
      <path id="Path_22" data-name="Path 22" d="M204.33,39.3h.933v1.052h-.933Zm.028,2.055h.871V46.74h-.871Z" transform="translate(-49.052 -5.476)" fill="#30d366"/>
    </g>
    <path id="Path_426" data-name="Path 426" d="M.216-.72,3.288-4.88H.272v-.832h4.16v.728L1.368-.84H4.544L4.432,0H.216ZM7.152-5.712h.96L10.288,0H9.256L8.72-1.456H6.5L5.976,0h-1Zm1.3,3.448L7.608-4.616l-.84,2.352Zm2.528-3.448H12.96a3.344,3.344,0,0,1,1.068.144,1.694,1.694,0,0,1,.66.384,1.318,1.318,0,0,1,.336.556,2.258,2.258,0,0,1,.1.66,2.55,2.55,0,0,1-.1.7,1.377,1.377,0,0,1-.34.588,1.689,1.689,0,0,1-.66.4,3.165,3.165,0,0,1-1.048.148h-1.04V0h-.952Zm1.968,2.776a2.113,2.113,0,0,0,.6-.072.9.9,0,0,0,.372-.2.7.7,0,0,0,.188-.316,1.531,1.531,0,0,0,.052-.416,1.418,1.418,0,0,0-.056-.42.635.635,0,0,0-.2-.3.954.954,0,0,0-.376-.184,2.325,2.325,0,0,0-.6-.064H11.936v1.976ZM15.52-1.424v-.864l.648-.448V-5.712h.968v2.328l1.44-.992v.856l-1.44.992V-.84h2.832l-.12.84h-3.68V-1.872Zm7.048-4.288h.96L25.7,0H24.672l-.536-1.456H21.92L21.392,0h-1Zm1.3,3.448-.848-2.352-.84,2.352Zm6.992.336a2.716,2.716,0,0,1-.216.824,2.038,2.038,0,0,1-.464.656,2.075,2.075,0,0,1-.72.436,2.843,2.843,0,0,1-.984.156,2.762,2.762,0,0,1-1.1-.208,2.2,2.2,0,0,1-.816-.6,2.624,2.624,0,0,1-.5-.944,4.2,4.2,0,0,1-.172-1.244,3.96,3.96,0,0,1,.188-1.264,2.708,2.708,0,0,1,.532-.948,2.278,2.278,0,0,1,.824-.592,2.673,2.673,0,0,1,1.056-.2,2.837,2.837,0,0,1,.928.136,1.9,1.9,0,0,1,.668.388,1.887,1.887,0,0,1,.44.6,3.252,3.252,0,0,1,.244.784l-.952.136a2.9,2.9,0,0,0-.16-.512A1.2,1.2,0,0,0,29.4-4.7a1.051,1.051,0,0,0-.38-.24,1.528,1.528,0,0,0-.536-.084,1.468,1.468,0,0,0-.68.152,1.4,1.4,0,0,0-.5.436A2.041,2.041,0,0,0,27-3.752a3.564,3.564,0,0,0-.1.9,3.472,3.472,0,0,0,.108.9,2.05,2.05,0,0,0,.316.684,1.4,1.4,0,0,0,.5.432,1.457,1.457,0,0,0,.668.148,1.643,1.643,0,0,0,.572-.088,1.089,1.089,0,0,0,.4-.248,1.149,1.149,0,0,0,.252-.388,2.178,2.178,0,0,0,.132-.516ZM29.84-7.3,28.648-6.184h-.872L28.76-7.3Zm4.288,1.584,1.056,4.336,1.088-4.3H37.3l1.1,4.3,1.024-4.328h1.032L38.888,0H37.92L36.76-4.5,35.616,0H34.68L33.04-5.712Zm8.784,3.336L40.928-5.712h1.08l1.376,2.48,1.408-2.48h1.024L43.872-2.376V0h-.96Zm7.856-.656V-.68a2.911,2.911,0,0,1-1.04.616A3.666,3.666,0,0,1,48.52.144a2.963,2.963,0,0,1-1.164-.212,2.248,2.248,0,0,1-.836-.6,2.548,2.548,0,0,1-.5-.94,4.253,4.253,0,0,1-.168-1.24A3.974,3.974,0,0,1,46.032-4.1a2.779,2.779,0,0,1,.52-.948,2.225,2.225,0,0,1,.816-.6,2.669,2.669,0,0,1,1.072-.208,2.822,2.822,0,0,1,.908.132A1.947,1.947,0,0,1,50-5.36a1.874,1.874,0,0,1,.432.54,2.434,2.434,0,0,1,.236.66l-.952.136a2.353,2.353,0,0,0-.156-.428.983.983,0,0,0-.24-.316,1.014,1.014,0,0,0-.364-.2,1.745,1.745,0,0,0-.52-.068,1.5,1.5,0,0,0-.7.156,1.375,1.375,0,0,0-.5.444,2.02,2.02,0,0,0-.3.688,3.809,3.809,0,0,0-.1.888,3.885,3.885,0,0,0,.1.9,1.89,1.89,0,0,0,.3.684,1.384,1.384,0,0,0,.524.436,1.75,1.75,0,0,0,.764.152,2.839,2.839,0,0,0,.72-.084,1.914,1.914,0,0,0,.616-.292v-1.16H48.608v-.816ZM54.3.144a2.869,2.869,0,0,1-1.108-.2,2.352,2.352,0,0,1-.844-.588,2.6,2.6,0,0,1-.54-.94,3.923,3.923,0,0,1-.188-1.26,3.884,3.884,0,0,1,.192-1.264,2.687,2.687,0,0,1,.544-.948,2.321,2.321,0,0,1,.848-.592,2.855,2.855,0,0,1,1.1-.2,2.877,2.877,0,0,1,1.1.2,2.27,2.27,0,0,1,.84.588,2.67,2.67,0,0,1,.532.94,3.923,3.923,0,0,1,.188,1.26A4.03,4.03,0,0,1,56.776-1.6a2.664,2.664,0,0,1-.528.944,2.255,2.255,0,0,1-.836.592A2.891,2.891,0,0,1,54.3.144Zm-.008-.832a1.448,1.448,0,0,0,1.248-.58,2.641,2.641,0,0,0,.424-1.588,3.472,3.472,0,0,0-.108-.9,2,2,0,0,0-.316-.68,1.406,1.406,0,0,0-.52-.432,1.644,1.644,0,0,0-.728-.152,1.644,1.644,0,0,0-.728.152,1.44,1.44,0,0,0-.524.432,1.908,1.908,0,0,0-.316.68,3.6,3.6,0,0,0-.1.9,2.66,2.66,0,0,0,.42,1.588A1.446,1.446,0,0,0,54.288-.688Zm5.6-.136a2.294,2.294,0,0,0,.86-.144,1.462,1.462,0,0,0,.584-.416,1.7,1.7,0,0,0,.332-.648,3.183,3.183,0,0,0,.1-.848,2.409,2.409,0,0,0-.4-1.476,1.536,1.536,0,0,0-1.312-.532h-1.1V-.824Zm.16-4.888a3.505,3.505,0,0,1,1.136.172,2.191,2.191,0,0,1,.856.524,2.322,2.322,0,0,1,.54.884,3.733,3.733,0,0,1,.188,1.244,3.6,3.6,0,0,1-.2,1.252,2.393,2.393,0,0,1-.576.9,2.416,2.416,0,0,1-.916.548A3.771,3.771,0,0,1,59.856,0H57.984V-5.712Zm3.744,0h.9l2.624,4.128V-5.712h.944V0h-.9L64.728-4.112V0h-.936Zm5.68,0h.968V0h-.968Zm2.176,0h3.8v.832H72.616v1.52h2.672v.84H72.616V-.832H75.6L75.488,0h-3.84ZM80.712.144A2.869,2.869,0,0,1,79.6-.06a2.352,2.352,0,0,1-.844-.588,2.6,2.6,0,0,1-.54-.94,3.923,3.923,0,0,1-.188-1.26,3.884,3.884,0,0,1,.192-1.264,2.687,2.687,0,0,1,.544-.948,2.321,2.321,0,0,1,.848-.592,2.855,2.855,0,0,1,1.1-.2,2.877,2.877,0,0,1,1.1.2,2.27,2.27,0,0,1,.84.588,2.67,2.67,0,0,1,.532.94,3.923,3.923,0,0,1,.188,1.26A4.03,4.03,0,0,1,83.192-1.6a2.664,2.664,0,0,1-.528.944,2.255,2.255,0,0,1-.836.592A2.891,2.891,0,0,1,80.712.144ZM80.7-.688a1.448,1.448,0,0,0,1.248-.58,2.641,2.641,0,0,0,.424-1.588,3.472,3.472,0,0,0-.108-.9,2,2,0,0,0-.316-.68,1.406,1.406,0,0,0-.52-.432,1.644,1.644,0,0,0-.728-.152,1.644,1.644,0,0,0-.728.152,1.44,1.44,0,0,0-.524.432,1.908,1.908,0,0,0-.316.68,3.6,3.6,0,0,0-.1.9,2.66,2.66,0,0,0,.42,1.588A1.446,1.446,0,0,0,80.7-.688Zm3.7-5.024h.9L87.92-1.584V-5.712h.944V0h-.9L85.336-4.112V0H84.4Zm6.648,0V-.84H93.88L93.76,0H90.08V-5.712Zm3.616,0h.968V0h-.968Zm2.176,0h.9l2.624,4.128V-5.712h.944V0h-.9L97.776-4.112V0H96.84Zm5.68,0h3.8v.832h-2.832v1.52h2.672v.84h-2.672V-.832h2.984L106.36,0h-3.84Z" transform="translate(27 69)" fill="#072653"/>
  </g>
</svg>
